<?xml version="1.0" standalone="no"?>
<!DOCTYPE svg PUBLIC "-//W3C//DTD SVG 20010904//EN"
 "http://www.w3.org/TR/2001/REC-SVG-20010904/DTD/svg10.dtd">
<svg version="1.0" xmlns="http://www.w3.org/2000/svg"
 width="1440.000000pt" height="791.000000pt" viewBox="0 0 1440.000000 791.000000"
 preserveAspectRatio="xMidYMid meet">
<metadata>
Created by potrace 1.15, written by Peter Selinger 2001-2017
</metadata>
<g transform="translate(0.000000,791.000000) scale(0.100000,-0.100000)"
fill="#000000" stroke="none">
<path d="M5980 5036 c-139 -39 -258 -153 -316 -301 -15 -39 -19 -75 -19 -160
0 -95 3 -118 25 -170 30 -70 99 -166 134 -185 24 -12 31 -7 173 116 81 71 211
183 288 249 187 160 225 199 225 229 0 33 -73 122 -134 163 -98 66 -259 91
-376 59z"/>
<path d="M7570 5034 c-69 -19 -131 -55 -193 -113 -56 -52 -80 -92 -70 -118 9
-24 218 -218 565 -526 l77 -68 39 25 c51 32 82 73 124 161 27 59 33 84 36 161
7 148 -38 266 -137 364 -114 112 -283 156 -441 114z"/>
<path d="M7232 4203 c-70 -21 -142 -86 -173 -155 -32 -74 -32 -185 0 -248 31
-61 239 -261 314 -301 183 -98 370 36 370 266 1 147 -31 201 -208 349 -115 96
-199 121 -303 89z"/>
<path d="M6417 4192 c-50 -18 -171 -100 -245 -166 -89 -81 -125 -190 -103
-314 28 -159 113 -241 248 -242 50 0 72 6 122 33 80 43 275 227 307 289 58
114 38 245 -51 334 -79 80 -175 103 -278 66z"/>
<path d="M5692 3408 c-7 -7 -12 -18 -12 -24 0 -7 -14 -47 -30 -89 -58 -144
-92 -298 -93 -420 -2 -125 12 -195 55 -276 52 -100 163 -193 283 -238 61 -23
180 -48 274 -59 l64 -7 27 -85 c40 -128 84 -205 170 -291 118 -120 261 -184
436 -196 143 -9 298 34 416 115 118 82 220 221 265 360 15 48 32 90 37 93 4 4
48 12 97 18 186 24 346 94 436 192 43 47 91 141 108 210 36 147 5 376 -81 588
-19 47 -34 91 -34 98 0 7 -9 13 -20 13 -23 0 -31 -14 -130 -240 -40 -91 -81
-175 -92 -187 -45 -49 -190 -83 -357 -83 -82 0 -138 10 -151 28 -13 18 -90 72
-135 95 -238 120 -491 98 -729 -63 l-89 -60 -112 0 c-187 0 -326 36 -373 95
-11 14 -48 89 -82 167 -78 178 -118 258 -128 258 -4 0 -13 -5 -20 -12z m1340
-480 c-2 -13 10 -17 58 -23 51 -6 64 -4 81 11 19 17 21 17 57 -1 107 -58 230
-231 266 -376 31 -125 12 -299 -44 -408 -17 -34 -26 -41 -50 -41 -24 0 -29 5
-32 28 -3 23 -8 27 -40 30 -32 3 -37 7 -40 30 -3 23 -8 27 -38 30 -19 1 -54 7
-78 14 -36 9 -49 8 -81 -6 -21 -10 -54 -16 -77 -14 -35 3 -39 6 -44 33 -4 22
-11 31 -29 33 -20 3 -22 7 -17 37 8 41 -12 52 -54 30 -27 -14 -31 -13 -56 8
l-27 24 23 41 24 42 66 0 c61 0 68 -2 80 -25 7 -14 22 -25 32 -25 21 0 22 8 8
46 -10 24 -7 31 25 64 19 20 35 45 35 56 0 22 23 47 53 57 9 4 17 15 17 26 0
14 20 30 70 57 39 21 70 44 70 50 0 7 -26 35 -57 63 -46 40 -68 52 -103 56
-25 4 -58 9 -74 12 -28 5 -29 4 -23 -30 6 -37 0 -77 -12 -77 -3 0 -18 11 -32
24 -15 14 -44 29 -65 35 -65 18 -70 25 -36 50 17 11 44 21 61 21 20 0 34 7 41
21 13 23 46 21 42 -3z m-559 -192 c27 -54 28 -61 17 -107 -12 -49 -12 -49 34
-128 54 -92 90 -131 120 -131 12 0 33 -15 48 -34 31 -39 163 -116 199 -116 16
0 30 -10 41 -30 14 -24 24 -30 52 -30 44 0 55 -27 29 -70 -17 -30 -17 -31 15
-96 25 -50 39 -68 62 -76 37 -12 37 -23 5 -70 -35 -51 -51 -58 -157 -64 -116
-7 -210 11 -315 62 -107 51 -226 170 -276 274 -103 215 -87 433 46 632 18 27
37 47 42 45 6 -2 23 -29 38 -61z"/>
<path d="M6720 3407 c-45 -22 -38 -58 23 -119 29 -29 68 -72 86 -96 47 -61 76
-65 119 -16 19 21 61 67 93 101 45 46 59 69 59 91 0 45 -39 57 -129 42 -52 -9
-88 -9 -140 -1 -85 13 -80 13 -111 -2z"/>
</g>
</svg>
